<svg xmlns="http://www.w3.org/2000/svg" viewBox="0 0 500 250">
  <rect width="500" height="250" fill="#1eb53a"/>
  <rect width="500" height="83.333" y="83.333" fill="#0099b5"/>
  <rect width="500" height="83.333" y="166.666" fill="#ce1126"/>
  <rect width="500" height="9.259" y="74.074" fill="#fff"/>
  <rect width="500" height="9.259" y="166.666" fill="#fff"/>
  <circle cx="70" cy="40" r="30" fill="#fff"/>
  <circle cx="80" cy="40" r="30" fill="#0099b5"/>
  <g fill="#fff">
    <path d="M67.5 17.3l1.5 4.4h4.8l-3.8 2.9 1.4 4.5-3.9-2.9-3.9 2.9 1.4-4.5-3.8-2.9h4.8z"/>
    <path d="M84.5 17.3l1.5 4.4h4.8l-3.8 2.9 1.4 4.5-3.9-2.9-3.9 2.9 1.4-4.5-3.8-2.9h4.8z"/>
    <path d="M101.5 17.3l1.5 4.4h4.8l-3.8 2.9 1.4 4.5-3.9-2.9-3.9 2.9 1.4-4.5-3.8-2.9h4.8z"/>
    <path d="M77 30l1.5 4.5h4.8l-3.8 2.9 1.4 4.5-3.9-2.9-3.9 2.9 1.4-4.5-3.8-2.9h4.8z"/>
    <path d="M94 30l1.5 4.5h4.8l-3.8 2.9 1.4 4.5-3.9-2.9-3.9 2.9 1.4-4.5-3.8-2.9h4.8z"/>
    <path d="M67.5 42.5l1.5 4.5h4.8l-3.8 2.9 1.4 4.5-3.9-2.9-3.9 2.9 1.4-4.5-3.8-2.9h4.8z"/>
    <path d="M84.5 42.5l1.5 4.5h4.8l-3.8 2.9 1.4 4.5-3.9-2.9-3.9 2.9 1.4-4.5-3.8-2.9h4.8z"/>
    <path d="M101.5 42.5l1.5 4.5h4.8l-3.8 2.9 1.4 4.5-3.9-2.9-3.9 2.9 1.4-4.5-3.8-2.9h4.8z"/>
  </g>
</svg>
